<svg version="1.1" viewBox="0.0 0.0 387.0 371.0" fill="none" stroke="none" stroke-linecap="square" stroke-miterlimit="10" width="387" height="371" xmlns:xlink="http://www.w3.org/1999/xlink" xmlns="http://www.w3.org/2000/svg"><path fill="#ffffff" d="M0 0L387.0 0L387.0 371.0L0 371.0L0 0Z" fill-rule="nonzero"/><path fill="#34a853" d="M193.5 18.55C261.9807 18.55 323.51675 60.369858 348.7262 124.0416C373.9356 187.71335 357.7054 260.32306 307.78513 307.20132L193.5 185.5Z" fill-rule="nonzero"/><path fill="#ea4335" d="M42.439125 114.416145C69.974815 55.899826 128.82872 18.55 193.5 18.55L193.5 185.5Z" fill-rule="nonzero"/><path fill="#4285f4" d="M307.78513 307.20132C249.36491 362.06155 160.20462 367.67105 95.369255 320.5654C30.533876 273.45972 8.316774 186.92982 42.439125 114.416145L193.5 185.5Z" fill-rule="nonzero"/><path stroke="#000000" stroke-width="1.0" stroke-linejoin="round" stroke-linecap="round" d="M193.5 185.5L193.5 18.55C261.9807 18.55 323.51675 60.369858 348.7262 124.0416C373.9356 187.71335 357.7054 260.32306 307.78513 307.20132" fill-rule="nonzero"/><path stroke="#000000" stroke-width="1.0" stroke-linejoin="round" stroke-linecap="round" d="M193.5 185.5L307.78513 307.20132C249.36491 362.06155 160.20462 367.67105 95.369255 320.5654C30.533876 273.45972 8.316774 186.92982 42.439125 114.416145" fill-rule="nonzero"/><path stroke="#000000" stroke-width="1.0" stroke-linejoin="round" stroke-linecap="round" d="M193.5 185.5L42.439125 114.416145C69.974815 55.899826 128.82872 18.55 193.5 18.55" fill-rule="nonzero"/></svg>